# xmcd
#
# Track frame offsets: 
#        150
#        44285
#        59481
#        79201
#        110139
#        122792
#        144848
#        158412
#        185219
#        195780
#        215922
#        233325
#        253002
#        272021
#        291165
#        305874
#        320635
#        336744
#
# Disc length: 4719 seconds
#
# Revision: 1
# Processed by: cddbd v1.5.2PL0 Copyright (c) Steve Scherf et al.
# Submitted via: ExactAudioCopy v0.99pb5
#
DISCID=19126d12
DTITLE=Claude Nougaro - Les 100 plus belles chansons - CD3 - Dansez su
DTITLE=r moi
DYEAR=2006
DGENRE=Jazz
TTITLE0=Locomotive d'or
TTITLE1=Dansez sur moi (Girl Talk)
TTITLE2=Rue Saint-Denis
TTITLE3=Montparis
TTITLE4=Petit homme, c'est l'heur' de fair' dodo
TTITLE5=Ile de Ré
TTITLE6=Ma femme
TTITLE7=Odette
TTITLE8=Brésilien (Viramundo)
TTITLE9=La statue de l'homme
TTITLE10=Comme une Piaf (Beauty and the Beast)
TTITLE11=Mon disque d'été
TTITLE12=Pablo
TTITLE13=La danse
TTITLE14=Tu verras (O que sera)
TTITLE15=Autour de minuit (Round About Midnight)
TTITLE16=Marcia Martienne
TTITLE17=Soeur âme (Sister Salvation)
EXTD=YEAR: 2006
EXTT0=
EXTT1=
EXTT2=
EXTT3=
EXTT4=
EXTT5=
EXTT6=
EXTT7=
EXTT8=
EXTT9=
EXTT10=
EXTT11=
EXTT12=
EXTT13=
EXTT14=
EXTT15=
EXTT16=
EXTT17=
PLAYORDER=
